<svg xmlns="http://www.w3.org/2000/svg" viewBox="0 0 800 420" font-family="Segoe UI, sans-serif">
<rect width="800" height="420" fill="#0d1117" rx="8"/>
<text x="64" y="30" fill="#e6edf3" font-size="17" font-weight="700">★ Star History — timoncool/telegram-api-mcp</text>
<text x="776" y="30" fill="#e6edf3" font-size="14" text-anchor="end">28 stars · updated 2026-09-24</text>
<line x1="64" y1="364.0" x2="776" y2="364.0" stroke="#30363d" stroke-width="1"/><text x="54" y="368.0" fill="#e6edf3" font-size="13" text-anchor="end">0</text><line x1="64" y1="285.0" x2="776" y2="285.0" stroke="#30363d" stroke-width="1"/><text x="54" y="289.0" fill="#e6edf3" font-size="13" text-anchor="end">7</text><line x1="64" y1="206.0" x2="776" y2="206.0" stroke="#30363d" stroke-width="1"/><text x="54" y="210.0" fill="#e6edf3" font-size="13" text-anchor="end">14</text><line x1="64" y1="127.0" x2="776" y2="127.0" stroke="#30363d" stroke-width="1"/><text x="54" y="131.0" fill="#e6edf3" font-size="13" text-anchor="end">21</text><line x1="64" y1="48.0" x2="776" y2="48.0" stroke="#30363d" stroke-width="1"/><text x="54" y="52.0" fill="#e6edf3" font-size="13" text-anchor="end">28</text>
<path d="M64.0,364.0 L64.0,352.7 L67.5,341.4 L68.7,330.1 L68.8,318.9 L68.9,307.6 L69.0,296.3 L72.1,285.0 L72.8,273.7 L76.9,262.4 L97.6,251.1 L109.1,239.9 L128.4,228.6 L135.3,217.3 L201.0,206.0 L202.2,194.7 L205.1,183.4 L210.5,172.1 L213.7,160.9 L222.1,149.6 L233.7,138.3 L259.1,127.0 L326.2,115.7 L346.4,104.4 L459.0,93.1 L477.9,81.9 L533.0,70.6 L566.2,59.3 L621.9,48.0 L776.0,48.0" fill="none" stroke="#4f8ff7" stroke-width="2.5" stroke-linejoin="round"/>
<circle cx="776.0" cy="48.0" r="4" fill="#4f8ff7"/>
<text x="64.0" y="388" fill="#e6edf3" font-size="13" text-anchor="middle">Apr 05, 2026</text><text x="301.3" y="388" fill="#e6edf3" font-size="13" text-anchor="middle">Jun 01, 2026</text><text x="538.7" y="388" fill="#e6edf3" font-size="13" text-anchor="middle">Jul 29, 2026</text><text x="776.0" y="388" fill="#e6edf3" font-size="13" text-anchor="middle">Sep 24, 2026</text>
</svg>